<svg xmlns="http://www.w3.org/2000/svg" xmlns:xlink="http://www.w3.org/1999/xlink" width="500" zoomAndPan="magnify" viewBox="0 0 375 374.999991" height="500" preserveAspectRatio="xMidYMid meet" version="1.0"><path fill="#03989e" d="M 21.648438 241.390625 C 30.757812 249.578125 44.785156 248.835938 52.980469 239.734375 C 61.175781 230.628906 60.433594 216.609375 51.324219 208.417969 C 42.214844 200.230469 28.183594 200.972656 19.988281 210.074219 C 11.792969 219.179688 12.535156 233.203125 21.648438 241.390625 Z M 84.25 225.839844 C 83.308594 219.460938 80.914062 213.390625 76.953125 208.300781 L 63.796875 191.417969 C 57.007812 182.703125 47.195312 176.714844 36.253906 175.136719 C 33.65625 174.761719 31.058594 174.09375 28.503906 173.117188 C 9.34375 165.792969 0.0273438 143.933594 8.324219 124.929688 C 15.734375 107.964844 35.125 99.320312 52.710938 105.128906 C 76.398438 112.949219 77.40625 134.042969 75.535156 146.734375 C 74.484375 153.859375 76.445312 161.097656 80.871094 166.78125 L 91.980469 181.035156 C 98.898438 189.914062 112.410156 189.671875 119.003906 180.550781 L 126.652344 169.972656 C 135.65625 157.519531 138.929688 141.96875 136.347656 126.828125 C 135.035156 119.121094 135.710938 110.980469 138.707031 103.148438 C 147.765625 79.5 174.546875 67.839844 198.128906 77.503906 C 220.003906 86.46875 231.554688 112.726562 223.382812 134.902344 C 217.460938 150.972656 203.410156 161.625 187.632812 163.996094 C 172.492188 166.269531 158.824219 174.316406 149.855469 186.71875 L 135.335938 206.800781 C 131.492188 212.117188 129.015625 218.324219 128.359375 224.847656 C 128.164062 226.761719 127.71875 228.675781 126.996094 230.558594 C 123.820312 238.855469 116.199219 244.148438 107.882812 244.769531 L 105.398438 244.808594 C 103.03125 244.71875 100.636719 244.257812 98.300781 243.359375 C 90.527344 240.390625 85.386719 233.523438 84.25 225.839844 " fill-opacity="1" fill-rule="nonzero"/><path fill="#81deea" d="M 325.242188 143.933594 C 334.355469 152.121094 348.382812 151.378906 356.578125 142.273438 C 364.773438 133.171875 364.03125 119.148438 354.917969 110.960938 C 345.808594 102.769531 331.78125 103.511719 323.585938 112.617188 C 315.390625 121.722656 316.132812 135.738281 325.242188 143.933594 Z M 295.039062 124.679688 C 295.648438 131.09375 297.734375 137.28125 301.429688 142.566406 L 313.707031 160.097656 C 320.039062 169.148438 329.535156 175.632812 340.375 177.765625 C 342.953125 178.277344 345.515625 179.074219 348.015625 180.183594 C 366.777344 188.476562 374.957031 210.78125 365.699219 229.335938 C 357.433594 245.898438 337.625 253.539062 320.359375 246.84375 C 297.101562 237.824219 297.171875 216.707031 299.695312 204.128906 C 301.109375 197.066406 299.523438 189.730469 295.386719 183.832031 L 285.027344 169.027344 C 278.574219 159.804688 265.066406 159.359375 258.011719 168.128906 L 249.835938 178.300781 C 240.207031 190.277344 236.140625 205.640625 237.941406 220.898438 C 238.855469 228.660156 237.765625 236.753906 234.375 244.421875 C 224.117188 267.578125 196.773438 277.859375 173.71875 267 C 152.328125 256.925781 142.140625 230.113281 151.433594 208.382812 C 158.171875 192.632812 172.753906 182.71875 188.628906 181.152344 C 203.863281 179.65625 217.929688 172.320312 227.519531 160.390625 L 243.050781 141.078125 C 247.15625 135.96875 249.949219 129.894531 250.9375 123.414062 C 251.230469 121.515625 251.773438 119.621094 252.589844 117.78125 C 256.1875 109.65625 264.070312 104.757812 272.40625 104.566406 L 274.890625 104.648438 C 277.25 104.863281 279.621094 105.449219 281.90625 106.460938 C 289.519531 109.828125 294.296875 116.945312 295.039062 124.679688 " fill-opacity="1" fill-rule="nonzero"/></svg>